<?xml version="1.0" encoding="utf-8"?>
<!-- Generator: Adobe Illustrator 28.1.0, SVG Export Plug-In . SVG Version: 6.00 Build 0)  -->
<svg version="1.1" id="Layer_1" xmlns="http://www.w3.org/2000/svg" xmlns:xlink="http://www.w3.org/1999/xlink" x="0px" y="0px"
	 viewBox="0 0 574.6 140" style="enable-background:new 0 0 574.6 140;" xml:space="preserve">
<style type="text/css">
	.st0{fill:#E4572E;}
</style>
<g fill="white">
	<polygon points="88.2,39.2 0,39.2 0,61.3 30.2,61.3 30.2,137.9 58.1,137.9 58.1,61.3 88.2,61.3 	"/>
	<path d="M351.4,39.2h-35.2c-3.8,5.5-7.6,10.9-11.4,16.3v82.3h46.6c32.7,0,55-19,55-49.3C406.5,58.2,384.1,39.2,351.4,39.2z
		 M350.3,115.6h-17.6V61.5h17.6c16.8,0,28,10,28,27.1C378.3,105.6,367.1,115.6,350.3,115.6z"/>
	<polygon points="441.4,39.2 413.5,39.2 413.5,137.9 488.4,137.9 488.4,115.7 441.4,115.7 	"/>
	<polygon points="523,116.3 523,98.3 566.8,98.3 566.8,77.4 523,77.4 523,60.8 572.7,60.8 572.7,39.2 495.5,39.2 495.5,137.9 
		574.6,137.9 574.6,116.3 	"/>
</g>
<path fill="white" d="M165.2,88.1c0-4.1-0.5-8-1.4-11.7c-0.9-3.7-2.4-6.9-4.3-9.5c-1.9-2.7-4.2-4.8-6.9-6.3c-2.7-1.6-5.9-2.4-9.6-2.4
	c-3.7,0-6.9,0.8-9.6,2.4c-2.7,1.6-5,3.7-6.9,6.3c-1.9,2.6-3.3,5.8-4.3,9.5c-1,3.7-1.4,7.6-1.4,11.7c0,4.2,0.5,8.2,1.4,11.8
	c0.9,3.6,2.3,6.8,4.2,9.5c1.8,2.7,4.2,4.9,7,6.5c2.8,1.6,6,2.4,9.7,2.4c3.7,0,6.9-0.8,9.6-2.4c2.7-1.6,5-3.7,6.9-6.5
	c1.9-2.7,3.3-5.9,4.3-9.5C164.8,96.3,165.2,92.3,165.2,88.1 M190.1,88.2c0,6.4-1,12.7-2.9,18.9c-2,6.2-4.9,11.7-8.8,16.6
	c-3.9,4.9-8.8,8.8-14.7,11.8c-5.9,3-12.8,4.5-20.7,4.5c-7.9,0-14.8-1.5-20.7-4.5c-5.9-3-10.8-6.9-14.7-11.8
	c-3.9-4.9-6.8-10.4-8.8-16.6c-2-6.2-2.9-12.5-2.9-18.9c0-6.4,1-12.6,2.9-18.8c2-6.1,4.9-11.6,8.8-16.4c3.9-4.8,8.8-8.7,14.7-11.6
	c5.9-2.9,12.8-4.4,20.7-4.4c7.9,0,14.8,1.5,20.6,4.4c5.8,2.9,10.7,6.8,14.7,11.6c4,4.8,6.9,10.3,8.9,16.4
	C189.1,75.6,190.1,81.8,190.1,88.2"/>
<g fill="white">
	<path  d="M256.8,131.5c-3.3,4.8-7.8,7.4-12.6,7.4c-4.7,0-9.1-2.5-12.3-7.1c-9.7-13.9-21.2-30.2-32.6-46.9c-0.1,1.1-0.1,2.1-0.1,3.2
		c0,6.4,1,12.7,2.9,18.9c2,6.2,4.9,11.7,8.8,16.6c3.9,4.9,8.8,8.8,14.7,11.8c5.9,3,12.8,4.5,20.7,4.5c7.9,0,14.8-1.5,20.7-4.5
		c5.9-3,10.8-6.9,14.7-11.8c3.9-4.9,6.8-10.4,8.8-16.6c2-6.2,2.9-12.5,2.9-18.9c0-2.9-0.2-5.7-0.6-8.5c-3.4,4.9-6.8,9.8-10.2,14.7
		C275.1,105.1,267.1,116.6,256.8,131.5z"/>
	<path d="M230.3,63.6c0.3,0.5,0.7,0.9,1,1.4c1.6-1.8,3.4-3.2,5.4-4.4c2.7-1.6,5.9-2.4,9.6-2.4c3.7,0,6.9,0.8,9.6,2.4
		c2.5,1.4,4.6,3.3,6.4,5.7c4.8-6,9.7-12,14.6-18.1c-3-2.6-6.3-4.9-10-6.8c-5.8-2.9-12.7-4.4-20.6-4.4c-7.9,0-14.8,1.5-20.7,4.4
		c-5.9,2.9-10.8,6.8-14.7,11.6c-0.5,0.6-1,1.3-1.5,2c1.4-0.4,2.9-0.6,4.4-0.6C220.2,54.4,226.3,57.8,230.3,63.6z"/>
</g>
<path fill="white" class="st0" d="M279.3,92.1C297,66.6,314.9,41,332.6,15.5c1.2-1.7,1.8-3.8,2.7-5.8c-0.3-5-3.3-8.8-8-9.7
	c-0.7-0.1-1.3-0.2-1.9-0.2c0,0,0,0,0,0c-3.9,0-6.5,2.6-9,5.6c-22,27.4-44,54.7-66.1,82c-1.5,1.9-2.9,2.9-4.3,2.9
	c-1.4,0-2.8-1-4.2-3.1c-5-7.1-9.9-14.2-14.8-21.4c-3.3-4.8-8.3-7.4-13.2-7.4c-1.9,0-3.8,0.4-5.6,1.2c-8.6,4-11.7,14.2-6.3,22.1
	c10.9,16,22.1,31.9,33.2,47.8c2.6,3.6,5.8,5.4,9,5.4c3.4,0,6.7-1.9,9.3-5.7C262.1,116.8,270.6,104.5,279.3,92.1z"/>
</svg>
